<svg xmlns="http://www.w3.org/2000/svg" width="96" height="192" viewBox="0 0 96 192"><g transform="translate(0 0)"><rect x="11" y="32.5" width="4" height="13.5" rx="1.6" fill="#3a5a8c" stroke="#241f2e" stroke-width="1"/><rect x="17" y="32.5" width="4" height="13.5" rx="1.6" fill="#3a5a8c" stroke="#241f2e" stroke-width="1"/><rect x="11" y="44" width="4" height="2.4" rx="1" fill="#3a2f2a" stroke="#241f2e" stroke-width="1"/><rect x="17" y="44" width="4" height="2.4" rx="1" fill="#3a2f2a" stroke="#241f2e" stroke-width="1"/><rect x="7" y="18.5" width="3" height="11.5" rx="1.4" fill="#cf5aa0" stroke="#241f2e" stroke-width="1"/><rect x="22" y="18.5" width="3" height="11.5" rx="1.4" fill="#cf5aa0" stroke="#241f2e" stroke-width="1"/><circle cx="8.5" cy="30" r="1.7" fill="#f7d9bd" stroke="#241f2e" stroke-width="1"/><circle cx="23.5" cy="30" r="1.7" fill="#f7d9bd" stroke="#241f2e" stroke-width="1"/><rect x="9.5" y="17.5" width="13" height="15.5" rx="3" fill="#cf5aa0" stroke="#241f2e" stroke-width="1"/><rect x="10.5" y="18.5" width="11" height="2" rx="1" fill="#f883c9"/><rect x="10.5" y="30" width="11" height="2.2" fill="#a1467d"/><rect x="14" y="15.3" width="4" height="3.5" fill="#d4bba3"/><circle cx="16" cy="11" r="5.8" fill="#f7d9bd" stroke="#241f2e" stroke-width="1"/><path d="M17.5 10 a4.3 4.3 0 0 1 0 8.6" fill="#d4bba3" opacity="0.5"/><path d="M9.799999999999999 11 a6.2 6.2 0 0 1 12.4 0 q0 -2 -6.2 -2 q-6.2 0 -6.2 2 z" fill="#caa44e" stroke="#241f2e" stroke-width="0.8"/><path d="M11.2 6.2 q4.8 -2 9.6 0" fill="none" stroke="#f3cd77" stroke-width="0.7" opacity="0.7"/><rect x="9.799999999999999" y="10" width="1.9" height="9.8" rx="0.8" fill="#caa44e" stroke="#241f2e" stroke-width="1"/><rect x="20.3" y="10" width="1.9" height="9.8" rx="0.8" fill="#caa44e" stroke="#241f2e" stroke-width="1"/><ellipse cx="16" cy="6.7" rx="8.8" ry="2.4" fill="#d8b25a" stroke="#241f2e" stroke-width="1"/><path d="M12.5 6.2 a3.5 3 0 0 1 7 0 z" fill="#c79a3b" stroke="#241f2e" stroke-width="1" stroke-linejoin="round"/><circle cx="13.8" cy="10.8" r="1" fill="#241f2e"/><circle cx="18.2" cy="10.8" r="1" fill="#241f2e"/><path d="M14.4 13.4 q1.6 1.3 3.2 0" fill="none" stroke="#241f2e" stroke-width="0.7" stroke-linecap="round"/></g><g transform="translate(32 0)"><rect x="11" y="31" width="4" height="13.5" rx="1.6" fill="#3a5a8c" stroke="#241f2e" stroke-width="1"/><rect x="17" y="32.5" width="4" height="13.5" rx="1.6" fill="#3a5a8c" stroke="#241f2e" stroke-width="1"/><rect x="11" y="42.5" width="4" height="2.4" rx="1" fill="#3a2f2a" stroke="#241f2e" stroke-width="1"/><rect x="17" y="44" width="4" height="2.4" rx="1" fill="#3a2f2a" stroke="#241f2e" stroke-width="1"/><rect x="7" y="17.5" width="3" height="11.5" rx="1.4" fill="#cf5aa0" stroke="#241f2e" stroke-width="1"/><rect x="22" y="19.5" width="3" height="11.5" rx="1.4" fill="#cf5aa0" stroke="#241f2e" stroke-width="1"/><circle cx="8.5" cy="29" r="1.7" fill="#f7d9bd" stroke="#241f2e" stroke-width="1"/><circle cx="23.5" cy="31" r="1.7" fill="#f7d9bd" stroke="#241f2e" stroke-width="1"/><rect x="9.5" y="17.5" width="13" height="15.5" rx="3" fill="#cf5aa0" stroke="#241f2e" stroke-width="1"/><rect x="10.5" y="18.5" width="11" height="2" rx="1" fill="#f883c9"/><rect x="10.5" y="30" width="11" height="2.2" fill="#a1467d"/><rect x="14" y="15.3" width="4" height="3.5" fill="#d4bba3"/><circle cx="16" cy="11" r="5.8" fill="#f7d9bd" stroke="#241f2e" stroke-width="1"/><path d="M17.5 10 a4.3 4.3 0 0 1 0 8.6" fill="#d4bba3" opacity="0.5"/><path d="M9.799999999999999 11 a6.2 6.2 0 0 1 12.4 0 q0 -2 -6.2 -2 q-6.2 0 -6.2 2 z" fill="#caa44e" stroke="#241f2e" stroke-width="0.8"/><path d="M11.2 6.2 q4.8 -2 9.6 0" fill="none" stroke="#f3cd77" stroke-width="0.7" opacity="0.7"/><rect x="9.799999999999999" y="10" width="1.9" height="9.8" rx="0.8" fill="#caa44e" stroke="#241f2e" stroke-width="1"/><rect x="20.3" y="10" width="1.9" height="9.8" rx="0.8" fill="#caa44e" stroke="#241f2e" stroke-width="1"/><ellipse cx="16" cy="6.7" rx="8.8" ry="2.4" fill="#d8b25a" stroke="#241f2e" stroke-width="1"/><path d="M12.5 6.2 a3.5 3 0 0 1 7 0 z" fill="#c79a3b" stroke="#241f2e" stroke-width="1" stroke-linejoin="round"/><circle cx="13.8" cy="10.8" r="1" fill="#241f2e"/><circle cx="18.2" cy="10.8" r="1" fill="#241f2e"/><path d="M14.4 13.4 q1.6 1.3 3.2 0" fill="none" stroke="#241f2e" stroke-width="0.7" stroke-linecap="round"/></g><g transform="translate(64 0)"><rect x="11" y="32.5" width="4" height="13.5" rx="1.6" fill="#3a5a8c" stroke="#241f2e" stroke-width="1"/><rect x="17" y="31" width="4" height="13.5" rx="1.6" fill="#3a5a8c" stroke="#241f2e" stroke-width="1"/><rect x="11" y="44" width="4" height="2.4" rx="1" fill="#3a2f2a" stroke="#241f2e" stroke-width="1"/><rect x="17" y="42.5" width="4" height="2.4" rx="1" fill="#3a2f2a" stroke="#241f2e" stroke-width="1"/><rect x="7" y="19.5" width="3" height="11.5" rx="1.4" fill="#cf5aa0" stroke="#241f2e" stroke-width="1"/><rect x="22" y="17.5" width="3" height="11.5" rx="1.4" fill="#cf5aa0" stroke="#241f2e" stroke-width="1"/><circle cx="8.5" cy="31" r="1.7" fill="#f7d9bd" stroke="#241f2e" stroke-width="1"/><circle cx="23.5" cy="29" r="1.7" fill="#f7d9bd" stroke="#241f2e" stroke-width="1"/><rect x="9.5" y="17.5" width="13" height="15.5" rx="3" fill="#cf5aa0" stroke="#241f2e" stroke-width="1"/><rect x="10.5" y="18.5" width="11" height="2" rx="1" fill="#f883c9"/><rect x="10.5" y="30" width="11" height="2.2" fill="#a1467d"/><rect x="14" y="15.3" width="4" height="3.5" fill="#d4bba3"/><circle cx="16" cy="11" r="5.8" fill="#f7d9bd" stroke="#241f2e" stroke-width="1"/><path d="M17.5 10 a4.3 4.3 0 0 1 0 8.6" fill="#d4bba3" opacity="0.5"/><path d="M9.799999999999999 11 a6.2 6.2 0 0 1 12.4 0 q0 -2 -6.2 -2 q-6.2 0 -6.2 2 z" fill="#caa44e" stroke="#241f2e" stroke-width="0.8"/><path d="M11.2 6.2 q4.8 -2 9.6 0" fill="none" stroke="#f3cd77" stroke-width="0.7" opacity="0.7"/><rect x="9.799999999999999" y="10" width="1.9" height="9.8" rx="0.8" fill="#caa44e" stroke="#241f2e" stroke-width="1"/><rect x="20.3" y="10" width="1.9" height="9.8" rx="0.8" fill="#caa44e" stroke="#241f2e" stroke-width="1"/><ellipse cx="16" cy="6.7" rx="8.8" ry="2.4" fill="#d8b25a" stroke="#241f2e" stroke-width="1"/><path d="M12.5 6.2 a3.5 3 0 0 1 7 0 z" fill="#c79a3b" stroke="#241f2e" stroke-width="1" stroke-linejoin="round"/><circle cx="13.8" cy="10.8" r="1" fill="#241f2e"/><circle cx="18.2" cy="10.8" r="1" fill="#241f2e"/><path d="M14.4 13.4 q1.6 1.3 3.2 0" fill="none" stroke="#241f2e" stroke-width="0.7" stroke-linecap="round"/></g><g transform="translate(0 48)"><rect x="14" y="32.5" width="4" height="13.5" rx="1.6" fill="#2e4870" stroke="#241f2e" stroke-width="1"/><rect x="14" y="32.5" width="4" height="13.5" rx="1.6" fill="#3a5a8c" stroke="#241f2e" stroke-width="1"/><rect x="14" y="44" width="3" height="2.4" rx="1" fill="#3a2f2a" stroke="#241f2e" stroke-width="1"/><rect x="11" y="18.5" width="3" height="12.5" rx="1.4" fill="#d964aa" stroke="#241f2e" stroke-width="1"/><circle cx="9.9" cy="31" r="1.7" fill="#f7d9bd" stroke="#241f2e" stroke-width="1"/><rect x="10.5" y="17.5" width="11" height="15.5" rx="3" fill="#cf5aa0" stroke="#241f2e" stroke-width="1"/><rect x="11.5" y="18.5" width="9" height="2" rx="1" fill="#f883c9"/><rect x="11.5" y="30" width="9" height="2.2" fill="#a1467d"/><rect x="14" y="15.3" width="4" height="3.5" fill="#d4bba3"/><circle cx="16" cy="11" r="5.8" fill="#f7d9bd" stroke="#241f2e" stroke-width="1"/><path d="M9.799999999999999 11 a6.2 6.2 0 0 1 12.4 0 q0 -2 -6.2 -2 q-6.2 0 -6.2 2 z" fill="#caa44e" stroke="#241f2e" stroke-width="0.8"/><path d="M11.2 6.2 q4.8 -2 9.6 0" fill="none" stroke="#f3cd77" stroke-width="0.7" opacity="0.7"/><rect x="20.2" y="10" width="1.8" height="9.8" rx="0.8" fill="#caa44e" stroke="#241f2e" stroke-width="1"/><ellipse cx="16" cy="6.7" rx="8.8" ry="2.4" fill="#d8b25a" stroke="#241f2e" stroke-width="1"/><path d="M12.5 6.2 a3.5 3 0 0 1 7 0 z" fill="#c79a3b" stroke="#241f2e" stroke-width="1" stroke-linejoin="round"/><circle cx="13.6" cy="10.7" r="0.95" fill="#241f2e"/><path d="M10.7 12 q-1.4 0.6 0 1.4" fill="none" stroke="#241f2e" stroke-width="0.7"/></g><g transform="translate(32 48)"><rect x="15" y="32.5" width="4" height="13.5" rx="1.6" fill="#2e4870" stroke="#241f2e" stroke-width="1"/><rect x="13" y="32.5" width="4" height="13.5" rx="1.6" fill="#3a5a8c" stroke="#241f2e" stroke-width="1"/><rect x="13" y="44" width="3" height="2.4" rx="1" fill="#3a2f2a" stroke="#241f2e" stroke-width="1"/><rect x="11" y="18.5" width="3" height="12.5" rx="1.4" fill="#d964aa" stroke="#241f2e" stroke-width="1"/><circle cx="9.9" cy="31" r="1.7" fill="#f7d9bd" stroke="#241f2e" stroke-width="1"/><rect x="10.5" y="17.5" width="11" height="15.5" rx="3" fill="#cf5aa0" stroke="#241f2e" stroke-width="1"/><rect x="11.5" y="18.5" width="9" height="2" rx="1" fill="#f883c9"/><rect x="11.5" y="30" width="9" height="2.2" fill="#a1467d"/><rect x="14" y="15.3" width="4" height="3.5" fill="#d4bba3"/><circle cx="16" cy="11" r="5.8" fill="#f7d9bd" stroke="#241f2e" stroke-width="1"/><path d="M9.799999999999999 11 a6.2 6.2 0 0 1 12.4 0 q0 -2 -6.2 -2 q-6.2 0 -6.2 2 z" fill="#caa44e" stroke="#241f2e" stroke-width="0.8"/><path d="M11.2 6.2 q4.8 -2 9.6 0" fill="none" stroke="#f3cd77" stroke-width="0.7" opacity="0.7"/><rect x="20.2" y="10" width="1.8" height="9.8" rx="0.8" fill="#caa44e" stroke="#241f2e" stroke-width="1"/><ellipse cx="16" cy="6.7" rx="8.8" ry="2.4" fill="#d8b25a" stroke="#241f2e" stroke-width="1"/><path d="M12.5 6.2 a3.5 3 0 0 1 7 0 z" fill="#c79a3b" stroke="#241f2e" stroke-width="1" stroke-linejoin="round"/><circle cx="13.6" cy="10.7" r="0.95" fill="#241f2e"/><path d="M10.7 12 q-1.4 0.6 0 1.4" fill="none" stroke="#241f2e" stroke-width="0.7"/></g><g transform="translate(64 48)"><rect x="13" y="32.5" width="4" height="13.5" rx="1.6" fill="#2e4870" stroke="#241f2e" stroke-width="1"/><rect x="15" y="32.5" width="4" height="13.5" rx="1.6" fill="#3a5a8c" stroke="#241f2e" stroke-width="1"/><rect x="15" y="44" width="3" height="2.4" rx="1" fill="#3a2f2a" stroke="#241f2e" stroke-width="1"/><rect x="11" y="18.5" width="3" height="12.5" rx="1.4" fill="#d964aa" stroke="#241f2e" stroke-width="1"/><circle cx="9.9" cy="31" r="1.7" fill="#f7d9bd" stroke="#241f2e" stroke-width="1"/><rect x="10.5" y="17.5" width="11" height="15.5" rx="3" fill="#cf5aa0" stroke="#241f2e" stroke-width="1"/><rect x="11.5" y="18.5" width="9" height="2" rx="1" fill="#f883c9"/><rect x="11.5" y="30" width="9" height="2.2" fill="#a1467d"/><rect x="14" y="15.3" width="4" height="3.5" fill="#d4bba3"/><circle cx="16" cy="11" r="5.8" fill="#f7d9bd" stroke="#241f2e" stroke-width="1"/><path d="M9.799999999999999 11 a6.2 6.2 0 0 1 12.4 0 q0 -2 -6.2 -2 q-6.2 0 -6.2 2 z" fill="#caa44e" stroke="#241f2e" stroke-width="0.8"/><path d="M11.2 6.2 q4.8 -2 9.6 0" fill="none" stroke="#f3cd77" stroke-width="0.7" opacity="0.7"/><rect x="20.2" y="10" width="1.8" height="9.8" rx="0.8" fill="#caa44e" stroke="#241f2e" stroke-width="1"/><ellipse cx="16" cy="6.7" rx="8.8" ry="2.4" fill="#d8b25a" stroke="#241f2e" stroke-width="1"/><path d="M12.5 6.2 a3.5 3 0 0 1 7 0 z" fill="#c79a3b" stroke="#241f2e" stroke-width="1" stroke-linejoin="round"/><circle cx="13.6" cy="10.7" r="0.95" fill="#241f2e"/><path d="M10.7 12 q-1.4 0.6 0 1.4" fill="none" stroke="#241f2e" stroke-width="0.7"/></g><g transform="translate(0 96)"><rect x="14" y="32.5" width="4" height="13.5" rx="1.6" fill="#2e4870" stroke="#241f2e" stroke-width="1"/><rect x="14" y="32.5" width="4" height="13.5" rx="1.6" fill="#3a5a8c" stroke="#241f2e" stroke-width="1"/><rect x="14" y="44" width="5" height="2.4" rx="1" fill="#3a2f2a" stroke="#241f2e" stroke-width="1"/><rect x="21" y="18.5" width="3" height="12.5" rx="1.4" fill="#d964aa" stroke="#241f2e" stroke-width="1"/><circle cx="22.1" cy="31" r="1.7" fill="#f7d9bd" stroke="#241f2e" stroke-width="1"/><rect x="10.5" y="17.5" width="11" height="15.5" rx="3" fill="#cf5aa0" stroke="#241f2e" stroke-width="1"/><rect x="11.5" y="18.5" width="9" height="2" rx="1" fill="#f883c9"/><rect x="11.5" y="30" width="9" height="2.2" fill="#a1467d"/><rect x="14" y="15.3" width="4" height="3.5" fill="#d4bba3"/><circle cx="16" cy="11" r="5.8" fill="#f7d9bd" stroke="#241f2e" stroke-width="1"/><path d="M9.799999999999999 11 a6.2 6.2 0 0 1 12.4 0 q0 -2 -6.2 -2 q-6.2 0 -6.2 2 z" fill="#caa44e" stroke="#241f2e" stroke-width="0.8"/><path d="M11.2 6.2 q4.8 -2 9.6 0" fill="none" stroke="#f3cd77" stroke-width="0.7" opacity="0.7"/><rect x="10.2" y="10" width="1.8" height="9.8" rx="0.8" fill="#caa44e" stroke="#241f2e" stroke-width="1"/><ellipse cx="16" cy="6.7" rx="8.8" ry="2.4" fill="#d8b25a" stroke="#241f2e" stroke-width="1"/><path d="M12.5 6.2 a3.5 3 0 0 1 7 0 z" fill="#c79a3b" stroke="#241f2e" stroke-width="1" stroke-linejoin="round"/><circle cx="18.4" cy="10.7" r="0.95" fill="#241f2e"/><path d="M21.3 12 q1.4 0.6 0 1.4" fill="none" stroke="#241f2e" stroke-width="0.7"/></g><g transform="translate(32 96)"><rect x="13" y="32.5" width="4" height="13.5" rx="1.6" fill="#2e4870" stroke="#241f2e" stroke-width="1"/><rect x="15" y="32.5" width="4" height="13.5" rx="1.6" fill="#3a5a8c" stroke="#241f2e" stroke-width="1"/><rect x="15" y="44" width="5" height="2.4" rx="1" fill="#3a2f2a" stroke="#241f2e" stroke-width="1"/><rect x="21" y="18.5" width="3" height="12.5" rx="1.4" fill="#d964aa" stroke="#241f2e" stroke-width="1"/><circle cx="22.1" cy="31" r="1.7" fill="#f7d9bd" stroke="#241f2e" stroke-width="1"/><rect x="10.5" y="17.5" width="11" height="15.5" rx="3" fill="#cf5aa0" stroke="#241f2e" stroke-width="1"/><rect x="11.5" y="18.5" width="9" height="2" rx="1" fill="#f883c9"/><rect x="11.5" y="30" width="9" height="2.2" fill="#a1467d"/><rect x="14" y="15.3" width="4" height="3.5" fill="#d4bba3"/><circle cx="16" cy="11" r="5.8" fill="#f7d9bd" stroke="#241f2e" stroke-width="1"/><path d="M9.799999999999999 11 a6.2 6.2 0 0 1 12.4 0 q0 -2 -6.2 -2 q-6.2 0 -6.2 2 z" fill="#caa44e" stroke="#241f2e" stroke-width="0.8"/><path d="M11.2 6.2 q4.8 -2 9.6 0" fill="none" stroke="#f3cd77" stroke-width="0.7" opacity="0.7"/><rect x="10.2" y="10" width="1.8" height="9.8" rx="0.8" fill="#caa44e" stroke="#241f2e" stroke-width="1"/><ellipse cx="16" cy="6.7" rx="8.8" ry="2.4" fill="#d8b25a" stroke="#241f2e" stroke-width="1"/><path d="M12.5 6.2 a3.5 3 0 0 1 7 0 z" fill="#c79a3b" stroke="#241f2e" stroke-width="1" stroke-linejoin="round"/><circle cx="18.4" cy="10.7" r="0.95" fill="#241f2e"/><path d="M21.3 12 q1.4 0.6 0 1.4" fill="none" stroke="#241f2e" stroke-width="0.7"/></g><g transform="translate(64 96)"><rect x="15" y="32.5" width="4" height="13.5" rx="1.6" fill="#2e4870" stroke="#241f2e" stroke-width="1"/><rect x="13" y="32.5" width="4" height="13.5" rx="1.6" fill="#3a5a8c" stroke="#241f2e" stroke-width="1"/><rect x="13" y="44" width="5" height="2.4" rx="1" fill="#3a2f2a" stroke="#241f2e" stroke-width="1"/><rect x="21" y="18.5" width="3" height="12.5" rx="1.4" fill="#d964aa" stroke="#241f2e" stroke-width="1"/><circle cx="22.1" cy="31" r="1.7" fill="#f7d9bd" stroke="#241f2e" stroke-width="1"/><rect x="10.5" y="17.5" width="11" height="15.5" rx="3" fill="#cf5aa0" stroke="#241f2e" stroke-width="1"/><rect x="11.5" y="18.5" width="9" height="2" rx="1" fill="#f883c9"/><rect x="11.5" y="30" width="9" height="2.2" fill="#a1467d"/><rect x="14" y="15.3" width="4" height="3.5" fill="#d4bba3"/><circle cx="16" cy="11" r="5.8" fill="#f7d9bd" stroke="#241f2e" stroke-width="1"/><path d="M9.799999999999999 11 a6.2 6.2 0 0 1 12.4 0 q0 -2 -6.2 -2 q-6.2 0 -6.2 2 z" fill="#caa44e" stroke="#241f2e" stroke-width="0.8"/><path d="M11.2 6.2 q4.8 -2 9.6 0" fill="none" stroke="#f3cd77" stroke-width="0.7" opacity="0.7"/><rect x="10.2" y="10" width="1.8" height="9.8" rx="0.8" fill="#caa44e" stroke="#241f2e" stroke-width="1"/><ellipse cx="16" cy="6.7" rx="8.8" ry="2.4" fill="#d8b25a" stroke="#241f2e" stroke-width="1"/><path d="M12.5 6.2 a3.5 3 0 0 1 7 0 z" fill="#c79a3b" stroke="#241f2e" stroke-width="1" stroke-linejoin="round"/><circle cx="18.4" cy="10.7" r="0.95" fill="#241f2e"/><path d="M21.3 12 q1.4 0.6 0 1.4" fill="none" stroke="#241f2e" stroke-width="0.7"/></g><g transform="translate(0 144)"><rect x="11" y="32.5" width="4" height="13.5" rx="1.6" fill="#3a5a8c" stroke="#241f2e" stroke-width="1"/><rect x="17" y="32.5" width="4" height="13.5" rx="1.6" fill="#3a5a8c" stroke="#241f2e" stroke-width="1"/><rect x="11" y="44" width="4" height="2.4" rx="1" fill="#3a2f2a" stroke="#241f2e" stroke-width="1"/><rect x="17" y="44" width="4" height="2.4" rx="1" fill="#3a2f2a" stroke="#241f2e" stroke-width="1"/><rect x="7" y="18.5" width="3" height="11.5" rx="1.4" fill="#cf5aa0" stroke="#241f2e" stroke-width="1"/><rect x="22" y="18.5" width="3" height="11.5" rx="1.4" fill="#cf5aa0" stroke="#241f2e" stroke-width="1"/><circle cx="8.5" cy="30" r="1.7" fill="#f7d9bd" stroke="#241f2e" stroke-width="1"/><circle cx="23.5" cy="30" r="1.7" fill="#f7d9bd" stroke="#241f2e" stroke-width="1"/><rect x="9.5" y="17.5" width="13" height="15.5" rx="3" fill="#cf5aa0" stroke="#241f2e" stroke-width="1"/><rect x="10.5" y="18.5" width="11" height="2" rx="1" fill="#f883c9"/><rect x="10.5" y="30" width="11" height="2.2" fill="#a1467d"/><rect x="14" y="15.3" width="4" height="3.5" fill="#d4bba3"/><circle cx="16" cy="11" r="5.8" fill="#f7d9bd" stroke="#241f2e" stroke-width="1"/><circle cx="16" cy="11" r="6.2" fill="#caa44e" stroke="#241f2e" stroke-width="1"/><rect x="10.2" y="10" width="11.6" height="8.8" rx="2" fill="#caa44e" stroke="#241f2e" stroke-width="1"/><ellipse cx="16" cy="7.2" rx="8.8" ry="2.6" fill="#cdaa50" stroke="#241f2e" stroke-width="1"/></g><g transform="translate(32 144)"><rect x="11" y="31" width="4" height="13.5" rx="1.6" fill="#3a5a8c" stroke="#241f2e" stroke-width="1"/><rect x="17" y="32.5" width="4" height="13.5" rx="1.6" fill="#3a5a8c" stroke="#241f2e" stroke-width="1"/><rect x="11" y="42.5" width="4" height="2.4" rx="1" fill="#3a2f2a" stroke="#241f2e" stroke-width="1"/><rect x="17" y="44" width="4" height="2.4" rx="1" fill="#3a2f2a" stroke="#241f2e" stroke-width="1"/><rect x="7" y="17.5" width="3" height="11.5" rx="1.4" fill="#cf5aa0" stroke="#241f2e" stroke-width="1"/><rect x="22" y="19.5" width="3" height="11.5" rx="1.4" fill="#cf5aa0" stroke="#241f2e" stroke-width="1"/><circle cx="8.5" cy="29" r="1.7" fill="#f7d9bd" stroke="#241f2e" stroke-width="1"/><circle cx="23.5" cy="31" r="1.7" fill="#f7d9bd" stroke="#241f2e" stroke-width="1"/><rect x="9.5" y="17.5" width="13" height="15.5" rx="3" fill="#cf5aa0" stroke="#241f2e" stroke-width="1"/><rect x="10.5" y="18.5" width="11" height="2" rx="1" fill="#f883c9"/><rect x="10.5" y="30" width="11" height="2.2" fill="#a1467d"/><rect x="14" y="15.3" width="4" height="3.5" fill="#d4bba3"/><circle cx="16" cy="11" r="5.8" fill="#f7d9bd" stroke="#241f2e" stroke-width="1"/><circle cx="16" cy="11" r="6.2" fill="#caa44e" stroke="#241f2e" stroke-width="1"/><rect x="10.2" y="10" width="11.6" height="8.8" rx="2" fill="#caa44e" stroke="#241f2e" stroke-width="1"/><ellipse cx="16" cy="7.2" rx="8.8" ry="2.6" fill="#cdaa50" stroke="#241f2e" stroke-width="1"/></g><g transform="translate(64 144)"><rect x="11" y="32.5" width="4" height="13.5" rx="1.6" fill="#3a5a8c" stroke="#241f2e" stroke-width="1"/><rect x="17" y="31" width="4" height="13.5" rx="1.6" fill="#3a5a8c" stroke="#241f2e" stroke-width="1"/><rect x="11" y="44" width="4" height="2.4" rx="1" fill="#3a2f2a" stroke="#241f2e" stroke-width="1"/><rect x="17" y="42.5" width="4" height="2.4" rx="1" fill="#3a2f2a" stroke="#241f2e" stroke-width="1"/><rect x="7" y="19.5" width="3" height="11.5" rx="1.4" fill="#cf5aa0" stroke="#241f2e" stroke-width="1"/><rect x="22" y="17.5" width="3" height="11.5" rx="1.4" fill="#cf5aa0" stroke="#241f2e" stroke-width="1"/><circle cx="8.5" cy="31" r="1.7" fill="#f7d9bd" stroke="#241f2e" stroke-width="1"/><circle cx="23.5" cy="29" r="1.7" fill="#f7d9bd" stroke="#241f2e" stroke-width="1"/><rect x="9.5" y="17.5" width="13" height="15.5" rx="3" fill="#cf5aa0" stroke="#241f2e" stroke-width="1"/><rect x="10.5" y="18.5" width="11" height="2" rx="1" fill="#f883c9"/><rect x="10.5" y="30" width="11" height="2.2" fill="#a1467d"/><rect x="14" y="15.3" width="4" height="3.5" fill="#d4bba3"/><circle cx="16" cy="11" r="5.8" fill="#f7d9bd" stroke="#241f2e" stroke-width="1"/><circle cx="16" cy="11" r="6.2" fill="#caa44e" stroke="#241f2e" stroke-width="1"/><rect x="10.2" y="10" width="11.6" height="8.8" rx="2" fill="#caa44e" stroke="#241f2e" stroke-width="1"/><ellipse cx="16" cy="7.2" rx="8.8" ry="2.6" fill="#cdaa50" stroke="#241f2e" stroke-width="1"/></g></svg>