<svg xmlns="http://www.w3.org/2000/svg" width="96" height="192" viewBox="0 0 96 192"><g transform="translate(0 0)"><path d="M9 26 L23 26 L25 39 L7 39 Z" fill="#8a5fb0" stroke="#2b2118" stroke-width="1" stroke-linejoin="round"/><rect x="11.5" y="38" width="3.2" height="8" rx="1.4" fill="#c98e63" stroke="#2b2118" stroke-width="1"/><rect x="17.3" y="38" width="3.2" height="8" rx="1.4" fill="#c98e63" stroke="#2b2118" stroke-width="1"/><rect x="7" y="17" width="3" height="10" rx="1.4" fill="#8a5fb0" stroke="#2b2118" stroke-width="1"/><rect x="22" y="17" width="3" height="10" rx="1.4" fill="#8a5fb0" stroke="#2b2118" stroke-width="1"/><circle cx="8.5" cy="27" r="1.7" fill="#c98e63" stroke="#2b2118" stroke-width="1"/><circle cx="23.5" cy="27" r="1.7" fill="#c98e63" stroke="#2b2118" stroke-width="1"/><rect x="9.5" y="16" width="13" height="14" rx="3" fill="#8a5fb0" stroke="#2b2118" stroke-width="1"/><rect x="10.5" y="17" width="11" height="2" rx="1" fill="#b388d9"/><rect x="10.5" y="27" width="11" height="2.2" fill="#6c4a89"/><rect x="19.3" y="18" width="3" height="10" fill="#2b2118" opacity="0.10"/><rect x="10.5" y="18" width="1.6" height="9" fill="#ffffff" opacity="0.10"/><rect x="14" y="13.7" width="4" height="3.5" fill="#ad7a55"/><circle cx="16" cy="10" r="5.2" fill="#c98e63" stroke="#2b2118" stroke-width="1"/><path d="M17.5 9 a3.7 3.7 0 0 1 0 7.4" fill="#ad7a55" opacity="0.5"/><path d="M10.4 10 a5.6000000000000005 5.6000000000000005 0 0 1 11.200000000000001 0 q0 -2 -5.6000000000000005 -2 q-5.6000000000000005 0 -5.6000000000000005 2 z" fill="#241f2e" stroke="#2b2118" stroke-width="0.8"/><path d="M11.8 5.8 q4.2 -2 8.4 0" fill="none" stroke="#4d4857" stroke-width="0.7" opacity="0.7"/><rect x="10.4" y="9" width="1.9" height="9.2" rx="0.8" fill="#241f2e" stroke="#2b2118" stroke-width="1"/><rect x="19.7" y="9" width="1.9" height="9.2" rx="0.8" fill="#241f2e" stroke="#2b2118" stroke-width="1"/><circle cx="13.8" cy="9.8" r="1" fill="#2b2118"/><circle cx="18.2" cy="9.8" r="1" fill="#2b2118"/><path d="M14.4 12.4 q1.6 1.3 3.2 0" fill="none" stroke="#2b2118" stroke-width="0.7" stroke-linecap="round"/></g><g transform="translate(32 0)"><path d="M9 26 L23 26 L25 39 L7 39 Z" fill="#8a5fb0" stroke="#2b2118" stroke-width="1" stroke-linejoin="round"/><rect x="11.5" y="38" width="3.2" height="8" rx="1.4" fill="#c98e63" stroke="#2b2118" stroke-width="1"/><rect x="17.3" y="38" width="3.2" height="8" rx="1.4" fill="#c98e63" stroke="#2b2118" stroke-width="1"/><rect x="7" y="16" width="3" height="10" rx="1.4" fill="#8a5fb0" stroke="#2b2118" stroke-width="1"/><rect x="22" y="18" width="3" height="10" rx="1.4" fill="#8a5fb0" stroke="#2b2118" stroke-width="1"/><circle cx="8.5" cy="26" r="1.7" fill="#c98e63" stroke="#2b2118" stroke-width="1"/><circle cx="23.5" cy="28" r="1.7" fill="#c98e63" stroke="#2b2118" stroke-width="1"/><rect x="9.5" y="16" width="13" height="14" rx="3" fill="#8a5fb0" stroke="#2b2118" stroke-width="1"/><rect x="10.5" y="17" width="11" height="2" rx="1" fill="#b388d9"/><rect x="10.5" y="27" width="11" height="2.2" fill="#6c4a89"/><rect x="19.3" y="18" width="3" height="10" fill="#2b2118" opacity="0.10"/><rect x="10.5" y="18" width="1.6" height="9" fill="#ffffff" opacity="0.10"/><rect x="14" y="13.7" width="4" height="3.5" fill="#ad7a55"/><circle cx="16" cy="10" r="5.2" fill="#c98e63" stroke="#2b2118" stroke-width="1"/><path d="M17.5 9 a3.7 3.7 0 0 1 0 7.4" fill="#ad7a55" opacity="0.5"/><path d="M10.4 10 a5.6000000000000005 5.6000000000000005 0 0 1 11.200000000000001 0 q0 -2 -5.6000000000000005 -2 q-5.6000000000000005 0 -5.6000000000000005 2 z" fill="#241f2e" stroke="#2b2118" stroke-width="0.8"/><path d="M11.8 5.8 q4.2 -2 8.4 0" fill="none" stroke="#4d4857" stroke-width="0.7" opacity="0.7"/><rect x="10.4" y="9" width="1.9" height="9.2" rx="0.8" fill="#241f2e" stroke="#2b2118" stroke-width="1"/><rect x="19.7" y="9" width="1.9" height="9.2" rx="0.8" fill="#241f2e" stroke="#2b2118" stroke-width="1"/><circle cx="13.8" cy="9.8" r="1" fill="#2b2118"/><circle cx="18.2" cy="9.8" r="1" fill="#2b2118"/><path d="M14.4 12.4 q1.6 1.3 3.2 0" fill="none" stroke="#2b2118" stroke-width="0.7" stroke-linecap="round"/></g><g transform="translate(64 0)"><path d="M9 26 L23 26 L25 39 L7 39 Z" fill="#8a5fb0" stroke="#2b2118" stroke-width="1" stroke-linejoin="round"/><rect x="11.5" y="38" width="3.2" height="8" rx="1.4" fill="#c98e63" stroke="#2b2118" stroke-width="1"/><rect x="17.3" y="38" width="3.2" height="8" rx="1.4" fill="#c98e63" stroke="#2b2118" stroke-width="1"/><rect x="7" y="18" width="3" height="10" rx="1.4" fill="#8a5fb0" stroke="#2b2118" stroke-width="1"/><rect x="22" y="16" width="3" height="10" rx="1.4" fill="#8a5fb0" stroke="#2b2118" stroke-width="1"/><circle cx="8.5" cy="28" r="1.7" fill="#c98e63" stroke="#2b2118" stroke-width="1"/><circle cx="23.5" cy="26" r="1.7" fill="#c98e63" stroke="#2b2118" stroke-width="1"/><rect x="9.5" y="16" width="13" height="14" rx="3" fill="#8a5fb0" stroke="#2b2118" stroke-width="1"/><rect x="10.5" y="17" width="11" height="2" rx="1" fill="#b388d9"/><rect x="10.5" y="27" width="11" height="2.2" fill="#6c4a89"/><rect x="19.3" y="18" width="3" height="10" fill="#2b2118" opacity="0.10"/><rect x="10.5" y="18" width="1.6" height="9" fill="#ffffff" opacity="0.10"/><rect x="14" y="13.7" width="4" height="3.5" fill="#ad7a55"/><circle cx="16" cy="10" r="5.2" fill="#c98e63" stroke="#2b2118" stroke-width="1"/><path d="M17.5 9 a3.7 3.7 0 0 1 0 7.4" fill="#ad7a55" opacity="0.5"/><path d="M10.4 10 a5.6000000000000005 5.6000000000000005 0 0 1 11.200000000000001 0 q0 -2 -5.6000000000000005 -2 q-5.6000000000000005 0 -5.6000000000000005 2 z" fill="#241f2e" stroke="#2b2118" stroke-width="0.8"/><path d="M11.8 5.8 q4.2 -2 8.4 0" fill="none" stroke="#4d4857" stroke-width="0.7" opacity="0.7"/><rect x="10.4" y="9" width="1.9" height="9.2" rx="0.8" fill="#241f2e" stroke="#2b2118" stroke-width="1"/><rect x="19.7" y="9" width="1.9" height="9.2" rx="0.8" fill="#241f2e" stroke="#2b2118" stroke-width="1"/><circle cx="13.8" cy="9.8" r="1" fill="#2b2118"/><circle cx="18.2" cy="9.8" r="1" fill="#2b2118"/><path d="M14.4 12.4 q1.6 1.3 3.2 0" fill="none" stroke="#2b2118" stroke-width="0.7" stroke-linecap="round"/></g><g transform="translate(0 48)"><path d="M9 26 L23 26 L25 39 L7 39 Z" fill="#8a5fb0" stroke="#2b2118" stroke-width="1" stroke-linejoin="round"/><rect x="11.5" y="38" width="3.2" height="8" rx="1.4" fill="#c98e63" stroke="#2b2118" stroke-width="1"/><rect x="17.3" y="38" width="3.2" height="8" rx="1.4" fill="#c98e63" stroke="#2b2118" stroke-width="1"/><rect x="11" y="17" width="3" height="11" rx="1.4" fill="#9469ba" stroke="#2b2118" stroke-width="1"/><circle cx="9.9" cy="28" r="1.7" fill="#c98e63" stroke="#2b2118" stroke-width="1"/><rect x="10.5" y="16" width="11" height="14" rx="3" fill="#8a5fb0" stroke="#2b2118" stroke-width="1"/><rect x="11.5" y="17" width="9" height="2" rx="1" fill="#b388d9"/><rect x="11.5" y="27" width="9" height="2.2" fill="#6c4a89"/><rect x="18.3" y="18" width="3" height="10" fill="#2b2118" opacity="0.10"/><rect x="11.5" y="18" width="1.6" height="9" fill="#ffffff" opacity="0.10"/><rect x="14" y="13.7" width="4" height="3.5" fill="#ad7a55"/><circle cx="16" cy="10" r="5.2" fill="#c98e63" stroke="#2b2118" stroke-width="1"/><path d="M10.4 10 a5.6000000000000005 5.6000000000000005 0 0 1 11.200000000000001 0 q0 -2 -5.6000000000000005 -2 q-5.6000000000000005 0 -5.6000000000000005 2 z" fill="#241f2e" stroke="#2b2118" stroke-width="0.8"/><path d="M11.8 5.8 q4.2 -2 8.4 0" fill="none" stroke="#4d4857" stroke-width="0.7" opacity="0.7"/><rect x="19.599999999999998" y="9" width="1.8" height="9.2" rx="0.8" fill="#241f2e" stroke="#2b2118" stroke-width="1"/><circle cx="13.6" cy="9.7" r="0.95" fill="#2b2118"/><path d="M11.3 11 q-1.4 0.6 0 1.4" fill="none" stroke="#2b2118" stroke-width="0.7"/></g><g transform="translate(32 48)"><path d="M9 26 L23 26 L25 39 L7 39 Z" fill="#8a5fb0" stroke="#2b2118" stroke-width="1" stroke-linejoin="round"/><rect x="11.5" y="38" width="3.2" height="8" rx="1.4" fill="#c98e63" stroke="#2b2118" stroke-width="1"/><rect x="17.3" y="38" width="3.2" height="8" rx="1.4" fill="#c98e63" stroke="#2b2118" stroke-width="1"/><rect x="11" y="17" width="3" height="11" rx="1.4" fill="#9469ba" stroke="#2b2118" stroke-width="1"/><circle cx="9.9" cy="28" r="1.7" fill="#c98e63" stroke="#2b2118" stroke-width="1"/><rect x="10.5" y="16" width="11" height="14" rx="3" fill="#8a5fb0" stroke="#2b2118" stroke-width="1"/><rect x="11.5" y="17" width="9" height="2" rx="1" fill="#b388d9"/><rect x="11.5" y="27" width="9" height="2.2" fill="#6c4a89"/><rect x="18.3" y="18" width="3" height="10" fill="#2b2118" opacity="0.10"/><rect x="11.5" y="18" width="1.6" height="9" fill="#ffffff" opacity="0.10"/><rect x="14" y="13.7" width="4" height="3.5" fill="#ad7a55"/><circle cx="16" cy="10" r="5.2" fill="#c98e63" stroke="#2b2118" stroke-width="1"/><path d="M10.4 10 a5.6000000000000005 5.6000000000000005 0 0 1 11.200000000000001 0 q0 -2 -5.6000000000000005 -2 q-5.6000000000000005 0 -5.6000000000000005 2 z" fill="#241f2e" stroke="#2b2118" stroke-width="0.8"/><path d="M11.8 5.8 q4.2 -2 8.4 0" fill="none" stroke="#4d4857" stroke-width="0.7" opacity="0.7"/><rect x="19.599999999999998" y="9" width="1.8" height="9.2" rx="0.8" fill="#241f2e" stroke="#2b2118" stroke-width="1"/><circle cx="13.6" cy="9.7" r="0.95" fill="#2b2118"/><path d="M11.3 11 q-1.4 0.6 0 1.4" fill="none" stroke="#2b2118" stroke-width="0.7"/></g><g transform="translate(64 48)"><path d="M9 26 L23 26 L25 39 L7 39 Z" fill="#8a5fb0" stroke="#2b2118" stroke-width="1" stroke-linejoin="round"/><rect x="11.5" y="38" width="3.2" height="8" rx="1.4" fill="#c98e63" stroke="#2b2118" stroke-width="1"/><rect x="17.3" y="38" width="3.2" height="8" rx="1.4" fill="#c98e63" stroke="#2b2118" stroke-width="1"/><rect x="11" y="17" width="3" height="11" rx="1.4" fill="#9469ba" stroke="#2b2118" stroke-width="1"/><circle cx="9.9" cy="28" r="1.7" fill="#c98e63" stroke="#2b2118" stroke-width="1"/><rect x="10.5" y="16" width="11" height="14" rx="3" fill="#8a5fb0" stroke="#2b2118" stroke-width="1"/><rect x="11.5" y="17" width="9" height="2" rx="1" fill="#b388d9"/><rect x="11.5" y="27" width="9" height="2.2" fill="#6c4a89"/><rect x="18.3" y="18" width="3" height="10" fill="#2b2118" opacity="0.10"/><rect x="11.5" y="18" width="1.6" height="9" fill="#ffffff" opacity="0.10"/><rect x="14" y="13.7" width="4" height="3.5" fill="#ad7a55"/><circle cx="16" cy="10" r="5.2" fill="#c98e63" stroke="#2b2118" stroke-width="1"/><path d="M10.4 10 a5.6000000000000005 5.6000000000000005 0 0 1 11.200000000000001 0 q0 -2 -5.6000000000000005 -2 q-5.6000000000000005 0 -5.6000000000000005 2 z" fill="#241f2e" stroke="#2b2118" stroke-width="0.8"/><path d="M11.8 5.8 q4.2 -2 8.4 0" fill="none" stroke="#4d4857" stroke-width="0.7" opacity="0.7"/><rect x="19.599999999999998" y="9" width="1.8" height="9.2" rx="0.8" fill="#241f2e" stroke="#2b2118" stroke-width="1"/><circle cx="13.6" cy="9.7" r="0.95" fill="#2b2118"/><path d="M11.3 11 q-1.4 0.6 0 1.4" fill="none" stroke="#2b2118" stroke-width="0.7"/></g><g transform="translate(0 96)"><path d="M9 26 L23 26 L25 39 L7 39 Z" fill="#8a5fb0" stroke="#2b2118" stroke-width="1" stroke-linejoin="round"/><rect x="11.5" y="38" width="3.2" height="8" rx="1.4" fill="#c98e63" stroke="#2b2118" stroke-width="1"/><rect x="17.3" y="38" width="3.2" height="8" rx="1.4" fill="#c98e63" stroke="#2b2118" stroke-width="1"/><rect x="21" y="17" width="3" height="11" rx="1.4" fill="#9469ba" stroke="#2b2118" stroke-width="1"/><circle cx="22.1" cy="28" r="1.7" fill="#c98e63" stroke="#2b2118" stroke-width="1"/><rect x="10.5" y="16" width="11" height="14" rx="3" fill="#8a5fb0" stroke="#2b2118" stroke-width="1"/><rect x="11.5" y="17" width="9" height="2" rx="1" fill="#b388d9"/><rect x="11.5" y="27" width="9" height="2.2" fill="#6c4a89"/><rect x="18.3" y="18" width="3" height="10" fill="#2b2118" opacity="0.10"/><rect x="11.5" y="18" width="1.6" height="9" fill="#ffffff" opacity="0.10"/><rect x="14" y="13.7" width="4" height="3.5" fill="#ad7a55"/><circle cx="16" cy="10" r="5.2" fill="#c98e63" stroke="#2b2118" stroke-width="1"/><path d="M10.4 10 a5.6000000000000005 5.6000000000000005 0 0 1 11.200000000000001 0 q0 -2 -5.6000000000000005 -2 q-5.6000000000000005 0 -5.6000000000000005 2 z" fill="#241f2e" stroke="#2b2118" stroke-width="0.8"/><path d="M11.8 5.8 q4.2 -2 8.4 0" fill="none" stroke="#4d4857" stroke-width="0.7" opacity="0.7"/><rect x="10.8" y="9" width="1.8" height="9.2" rx="0.8" fill="#241f2e" stroke="#2b2118" stroke-width="1"/><circle cx="18.4" cy="9.7" r="0.95" fill="#2b2118"/><path d="M20.7 11 q1.4 0.6 0 1.4" fill="none" stroke="#2b2118" stroke-width="0.7"/></g><g transform="translate(32 96)"><path d="M9 26 L23 26 L25 39 L7 39 Z" fill="#8a5fb0" stroke="#2b2118" stroke-width="1" stroke-linejoin="round"/><rect x="11.5" y="38" width="3.2" height="8" rx="1.4" fill="#c98e63" stroke="#2b2118" stroke-width="1"/><rect x="17.3" y="38" width="3.2" height="8" rx="1.4" fill="#c98e63" stroke="#2b2118" stroke-width="1"/><rect x="21" y="17" width="3" height="11" rx="1.4" fill="#9469ba" stroke="#2b2118" stroke-width="1"/><circle cx="22.1" cy="28" r="1.7" fill="#c98e63" stroke="#2b2118" stroke-width="1"/><rect x="10.5" y="16" width="11" height="14" rx="3" fill="#8a5fb0" stroke="#2b2118" stroke-width="1"/><rect x="11.5" y="17" width="9" height="2" rx="1" fill="#b388d9"/><rect x="11.5" y="27" width="9" height="2.2" fill="#6c4a89"/><rect x="18.3" y="18" width="3" height="10" fill="#2b2118" opacity="0.10"/><rect x="11.5" y="18" width="1.6" height="9" fill="#ffffff" opacity="0.10"/><rect x="14" y="13.7" width="4" height="3.5" fill="#ad7a55"/><circle cx="16" cy="10" r="5.2" fill="#c98e63" stroke="#2b2118" stroke-width="1"/><path d="M10.4 10 a5.6000000000000005 5.6000000000000005 0 0 1 11.200000000000001 0 q0 -2 -5.6000000000000005 -2 q-5.6000000000000005 0 -5.6000000000000005 2 z" fill="#241f2e" stroke="#2b2118" stroke-width="0.8"/><path d="M11.8 5.8 q4.2 -2 8.4 0" fill="none" stroke="#4d4857" stroke-width="0.7" opacity="0.7"/><rect x="10.8" y="9" width="1.8" height="9.2" rx="0.8" fill="#241f2e" stroke="#2b2118" stroke-width="1"/><circle cx="18.4" cy="9.7" r="0.95" fill="#2b2118"/><path d="M20.7 11 q1.4 0.6 0 1.4" fill="none" stroke="#2b2118" stroke-width="0.7"/></g><g transform="translate(64 96)"><path d="M9 26 L23 26 L25 39 L7 39 Z" fill="#8a5fb0" stroke="#2b2118" stroke-width="1" stroke-linejoin="round"/><rect x="11.5" y="38" width="3.2" height="8" rx="1.4" fill="#c98e63" stroke="#2b2118" stroke-width="1"/><rect x="17.3" y="38" width="3.2" height="8" rx="1.4" fill="#c98e63" stroke="#2b2118" stroke-width="1"/><rect x="21" y="17" width="3" height="11" rx="1.4" fill="#9469ba" stroke="#2b2118" stroke-width="1"/><circle cx="22.1" cy="28" r="1.7" fill="#c98e63" stroke="#2b2118" stroke-width="1"/><rect x="10.5" y="16" width="11" height="14" rx="3" fill="#8a5fb0" stroke="#2b2118" stroke-width="1"/><rect x="11.5" y="17" width="9" height="2" rx="1" fill="#b388d9"/><rect x="11.5" y="27" width="9" height="2.2" fill="#6c4a89"/><rect x="18.3" y="18" width="3" height="10" fill="#2b2118" opacity="0.10"/><rect x="11.5" y="18" width="1.6" height="9" fill="#ffffff" opacity="0.10"/><rect x="14" y="13.7" width="4" height="3.5" fill="#ad7a55"/><circle cx="16" cy="10" r="5.2" fill="#c98e63" stroke="#2b2118" stroke-width="1"/><path d="M10.4 10 a5.6000000000000005 5.6000000000000005 0 0 1 11.200000000000001 0 q0 -2 -5.6000000000000005 -2 q-5.6000000000000005 0 -5.6000000000000005 2 z" fill="#241f2e" stroke="#2b2118" stroke-width="0.8"/><path d="M11.8 5.8 q4.2 -2 8.4 0" fill="none" stroke="#4d4857" stroke-width="0.7" opacity="0.7"/><rect x="10.8" y="9" width="1.8" height="9.2" rx="0.8" fill="#241f2e" stroke="#2b2118" stroke-width="1"/><circle cx="18.4" cy="9.7" r="0.95" fill="#2b2118"/><path d="M20.7 11 q1.4 0.6 0 1.4" fill="none" stroke="#2b2118" stroke-width="0.7"/></g><g transform="translate(0 144)"><path d="M9 26 L23 26 L25 39 L7 39 Z" fill="#8a5fb0" stroke="#2b2118" stroke-width="1" stroke-linejoin="round"/><rect x="11.5" y="38" width="3.2" height="8" rx="1.4" fill="#c98e63" stroke="#2b2118" stroke-width="1"/><rect x="17.3" y="38" width="3.2" height="8" rx="1.4" fill="#c98e63" stroke="#2b2118" stroke-width="1"/><rect x="7" y="17" width="3" height="10" rx="1.4" fill="#8a5fb0" stroke="#2b2118" stroke-width="1"/><rect x="22" y="17" width="3" height="10" rx="1.4" fill="#8a5fb0" stroke="#2b2118" stroke-width="1"/><circle cx="8.5" cy="27" r="1.7" fill="#c98e63" stroke="#2b2118" stroke-width="1"/><circle cx="23.5" cy="27" r="1.7" fill="#c98e63" stroke="#2b2118" stroke-width="1"/><rect x="9.5" y="16" width="13" height="14" rx="3" fill="#8a5fb0" stroke="#2b2118" stroke-width="1"/><rect x="10.5" y="17" width="11" height="2" rx="1" fill="#b388d9"/><rect x="10.5" y="27" width="11" height="2.2" fill="#6c4a89"/><rect x="19.3" y="18" width="3" height="10" fill="#2b2118" opacity="0.10"/><rect x="10.5" y="18" width="1.6" height="9" fill="#ffffff" opacity="0.10"/><rect x="14" y="13.7" width="4" height="3.5" fill="#ad7a55"/><circle cx="16" cy="10" r="5.2" fill="#c98e63" stroke="#2b2118" stroke-width="1"/><circle cx="16" cy="10" r="5.6000000000000005" fill="#241f2e" stroke="#2b2118" stroke-width="1"/><rect x="10.8" y="9" width="10.4" height="8.2" rx="2" fill="#241f2e" stroke="#2b2118" stroke-width="1"/></g><g transform="translate(32 144)"><path d="M9 26 L23 26 L25 39 L7 39 Z" fill="#8a5fb0" stroke="#2b2118" stroke-width="1" stroke-linejoin="round"/><rect x="11.5" y="38" width="3.2" height="8" rx="1.4" fill="#c98e63" stroke="#2b2118" stroke-width="1"/><rect x="17.3" y="38" width="3.2" height="8" rx="1.4" fill="#c98e63" stroke="#2b2118" stroke-width="1"/><rect x="7" y="16" width="3" height="10" rx="1.4" fill="#8a5fb0" stroke="#2b2118" stroke-width="1"/><rect x="22" y="18" width="3" height="10" rx="1.4" fill="#8a5fb0" stroke="#2b2118" stroke-width="1"/><circle cx="8.5" cy="26" r="1.7" fill="#c98e63" stroke="#2b2118" stroke-width="1"/><circle cx="23.5" cy="28" r="1.7" fill="#c98e63" stroke="#2b2118" stroke-width="1"/><rect x="9.5" y="16" width="13" height="14" rx="3" fill="#8a5fb0" stroke="#2b2118" stroke-width="1"/><rect x="10.5" y="17" width="11" height="2" rx="1" fill="#b388d9"/><rect x="10.5" y="27" width="11" height="2.2" fill="#6c4a89"/><rect x="19.3" y="18" width="3" height="10" fill="#2b2118" opacity="0.10"/><rect x="10.5" y="18" width="1.6" height="9" fill="#ffffff" opacity="0.10"/><rect x="14" y="13.7" width="4" height="3.5" fill="#ad7a55"/><circle cx="16" cy="10" r="5.2" fill="#c98e63" stroke="#2b2118" stroke-width="1"/><circle cx="16" cy="10" r="5.6000000000000005" fill="#241f2e" stroke="#2b2118" stroke-width="1"/><rect x="10.8" y="9" width="10.4" height="8.2" rx="2" fill="#241f2e" stroke="#2b2118" stroke-width="1"/></g><g transform="translate(64 144)"><path d="M9 26 L23 26 L25 39 L7 39 Z" fill="#8a5fb0" stroke="#2b2118" stroke-width="1" stroke-linejoin="round"/><rect x="11.5" y="38" width="3.2" height="8" rx="1.4" fill="#c98e63" stroke="#2b2118" stroke-width="1"/><rect x="17.3" y="38" width="3.2" height="8" rx="1.4" fill="#c98e63" stroke="#2b2118" stroke-width="1"/><rect x="7" y="18" width="3" height="10" rx="1.4" fill="#8a5fb0" stroke="#2b2118" stroke-width="1"/><rect x="22" y="16" width="3" height="10" rx="1.4" fill="#8a5fb0" stroke="#2b2118" stroke-width="1"/><circle cx="8.5" cy="28" r="1.7" fill="#c98e63" stroke="#2b2118" stroke-width="1"/><circle cx="23.5" cy="26" r="1.7" fill="#c98e63" stroke="#2b2118" stroke-width="1"/><rect x="9.5" y="16" width="13" height="14" rx="3" fill="#8a5fb0" stroke="#2b2118" stroke-width="1"/><rect x="10.5" y="17" width="11" height="2" rx="1" fill="#b388d9"/><rect x="10.5" y="27" width="11" height="2.2" fill="#6c4a89"/><rect x="19.3" y="18" width="3" height="10" fill="#2b2118" opacity="0.10"/><rect x="10.5" y="18" width="1.6" height="9" fill="#ffffff" opacity="0.10"/><rect x="14" y="13.7" width="4" height="3.5" fill="#ad7a55"/><circle cx="16" cy="10" r="5.2" fill="#c98e63" stroke="#2b2118" stroke-width="1"/><circle cx="16" cy="10" r="5.6000000000000005" fill="#241f2e" stroke="#2b2118" stroke-width="1"/><rect x="10.8" y="9" width="10.4" height="8.2" rx="2" fill="#241f2e" stroke="#2b2118" stroke-width="1"/></g></svg>