<svg xmlns="http://www.w3.org/2000/svg" width="48" height="80" viewBox="0 0 48 80">
  <defs>
    <linearGradient id="door_frame" x1="0" y1="0" x2="1" y2="0"><stop offset="0" stop-color="#6a4527"/><stop offset="0.5" stop-color="#855a31"/><stop offset="1" stop-color="#573920"/></linearGradient>
    <linearGradient id="door_slab" x1="0" y1="0" x2="1" y2="0"><stop offset="0" stop-color="#bd8b4e"/><stop offset="0.5" stop-color="#9c6b3c"/><stop offset="1" stop-color="#774e28"/></linearGradient>
    <linearGradient id="door_panel" x1="0" y1="0" x2="1" y2="1"><stop offset="0" stop-color="#aa7843"/><stop offset="1" stop-color="#6e4622"/></linearGradient>
    <radialGradient id="door_knob" cx="0.35" cy="0.35" r="0.7"><stop offset="0" stop-color="#fff0b8"/><stop offset="0.5" stop-color="#f3d24e"/><stop offset="1" stop-color="#a87f1f"/></radialGradient>
    <filter id="door_grain" x="0" y="0" width="100%" height="100%" color-interpolation-filters="sRGB">
      <feTurbulence type="fractalNoise" baseFrequency="0.02 0.55" numOctaves="3" seed="9" result="n"/>
      <feColorMatrix in="n" type="matrix" values="0 0 0 0 0 0 0 0 0 0 0 0 0 0 0 0.7 0 0 0 0" result="a"/>
      <feComponentTransfer in="a" result="m"><feFuncA type="gamma" amplitude="1" exponent="1.7"/></feComponentTransfer>
      <feComposite in="m" in2="SourceAlpha" operator="in"/>
    </filter>
  </defs>
  <!-- contact shadow -->
  <ellipse cx="24" cy="78" rx="21" ry="2.6" fill="#241a10" opacity="0.26"/>
  <!-- bold dark outer frame so the door pops against the light stone wall -->
  <rect x="1.5" y="1.5" width="45" height="77" rx="2.5" fill="url(#door_frame)" stroke="#201207" stroke-width="2.5"/>
  <!-- stone/wood threshold sill -->
  <rect x="3" y="72" width="42" height="6.5" fill="#4a3018" stroke="#201207" stroke-width="1"/>
  <!-- door slab -->
  <rect x="6" y="5" width="36" height="67" rx="1.5" fill="url(#door_slab)" stroke="#201207" stroke-width="2"/>
  <rect x="6" y="5" width="36" height="67" rx="1.5" fill="#774e28" filter="url(#door_grain)" opacity="0.4"/>
  <!-- top-left sheen -->
  <rect x="7" y="6" width="34" height="2" fill="#ffffff" opacity="0.2"/>
  <rect x="7" y="6" width="2" height="64" fill="#ffffff" opacity="0.16"/>
  <!-- two raised panels -->
  <rect x="11" y="11" width="26" height="26" rx="1.5" fill="url(#door_panel)" stroke="#573920" stroke-width="1.6"/>
  <rect x="11" y="42" width="26" height="26" rx="1.5" fill="url(#door_panel)" stroke="#573920" stroke-width="1.6"/>
  <!-- brass knob on the right stile -->
  <circle cx="35.5" cy="40" r="3" fill="#201207" opacity="0.35"/>
  <circle cx="34.8" cy="39.3" r="2.7" fill="url(#door_knob)" stroke="#7a5a16" stroke-width="0.7"/>
  <circle cx="33.9" cy="38.4" r="0.8" fill="#fff7d6" opacity="0.9"/>
</svg>
