<svg xmlns="http://www.w3.org/2000/svg" width="16" height="16" viewBox="0 0 16 16">
<rect x="0" y="0" width="16" height="16" fill="#6fae4b"/>
<rect x="0" y="0" width="16" height="8" fill="#77b552" opacity="0.35"/>
<rect x="0" y="11" width="16" height="5" fill="#62a043" opacity="0.4"/>
<path d="M2 13 L2.6 10 L3.2 13 Z" fill="#4f8c39"/>
<path d="M6 6 L6.6 3 L7.2 6 Z" fill="#4f8c39"/>
<path d="M11 14 L11.6 11 L12.2 14 Z" fill="#4f8c39"/>
<path d="M13 7 L13.5 4.5 L14 7 Z" fill="#4f8c39"/>
<rect x="4" y="9" width="1" height="1" fill="#62a043"/>
<rect x="9" y="3" width="1" height="1" fill="#62a043"/>
<rect x="14" y="11" width="1" height="1" fill="#62a043"/>
<rect x="1" y="5" width="1" height="1" fill="#77b552"/>
<rect x="8" y="13" width="1" height="1" fill="#77b552"/>
<rect x="12" y="1" width="1" height="1" fill="#77b552"/>
</svg>
