<svg xmlns="http://www.w3.org/2000/svg" width="30" height="20" viewBox="0 0 30 20">
  <rect x="2" y="2" width="26" height="16" rx="2" fill="#33271a" stroke="#241f2e" stroke-width="1"/>
  <rect x="3.5" y="3.5" width="23" height="6" rx="1" fill="#241f2e"/>
  <rect x="4" y="4" width="22" height="2" rx="1" fill="#46372a" opacity="0.8"/>
  <rect x="3" y="11" width="24" height="5.5" rx="1" fill="#eef0f2" stroke="#241f2e" stroke-width="1"/>
  <line x1="6" y1="11" x2="6" y2="16.5" stroke="#241f2e" stroke-width="0.6"/>
  <line x1="9" y1="11" x2="9" y2="16.5" stroke="#241f2e" stroke-width="0.6"/>
  <line x1="12" y1="11" x2="12" y2="16.5" stroke="#241f2e" stroke-width="0.6"/>
  <line x1="15" y1="11" x2="15" y2="16.5" stroke="#241f2e" stroke-width="0.6"/>
  <line x1="18" y1="11" x2="18" y2="16.5" stroke="#241f2e" stroke-width="0.6"/>
  <line x1="21" y1="11" x2="21" y2="16.5" stroke="#241f2e" stroke-width="0.6"/>
  <line x1="24" y1="11" x2="24" y2="16.5" stroke="#241f2e" stroke-width="0.6"/>
  <rect x="5" y="11" width="2" height="3.2" fill="#241f2e"/>
  <rect x="8" y="11" width="2" height="3.2" fill="#241f2e"/>
  <rect x="14" y="11" width="2" height="3.2" fill="#241f2e"/>
  <rect x="17" y="11" width="2" height="3.2" fill="#241f2e"/>
  <rect x="20" y="11" width="2" height="3.2" fill="#241f2e"/>
</svg>
