<svg xmlns="http://www.w3.org/2000/svg" width="120" height="88" viewBox="0 0 120 88">
  <defs>
    <radialGradient id="pond_water" cx="0.42" cy="0.38" r="0.72">
      <stop offset="0" stop-color="#6fa9cf"/>
      <stop offset="0.55" stop-color="#4f7bb0"/>
      <stop offset="1" stop-color="#365f93"/>
    </radialGradient>
    <radialGradient id="pond_shallow" cx="0.5" cy="0.5" r="0.6">
      <stop offset="0" stop-color="#9cc6dd" stop-opacity="0"/>
      <stop offset="0.78" stop-color="#a8d0e3" stop-opacity="0"/>
      <stop offset="1" stop-color="#cfe6ef" stop-opacity="0.85"/>
    </radialGradient>
    <linearGradient id="pond_pad" x1="0" y1="0" x2="0" y2="1">
      <stop offset="0" stop-color="#74bb6c"/>
      <stop offset="1" stop-color="#4f8c4d"/>
    </linearGradient>
    <linearGradient id="pond_pad2" x1="0" y1="0" x2="0" y2="1">
      <stop offset="0" stop-color="#6fb466"/>
      <stop offset="1" stop-color="#477f45"/>
    </linearGradient>
    <radialGradient id="pond_bloom" cx="0.5" cy="0.42" r="0.6">
      <stop offset="0" stop-color="#f6cad8"/>
      <stop offset="1" stop-color="#d98ba6"/>
    </radialGradient>
    <linearGradient id="pond_rock" x1="0" y1="0" x2="0" y2="1">
      <stop offset="0" stop-color="#cfc6b2"/>
      <stop offset="1" stop-color="#9a917c"/>
    </linearGradient>
    <filter id="pond_grain" x="0" y="0" width="100%" height="100%" color-interpolation-filters="sRGB">
      <feTurbulence type="fractalNoise" baseFrequency="0.18 0.26" numOctaves="3" seed="7" stitchTiles="stitch" result="n"/>
      <feColorMatrix in="n" type="matrix" values="0 0 0 0 0  0 0 0 0 0  0 0 0 0 0  0.5 0 0 0 0" result="a"/>
      <feComponentTransfer in="a" result="m"><feFuncA type="gamma" amplitude="1" exponent="1.7" offset="0"/></feComponentTransfer>
      <feComposite in="m" in2="SourceAlpha" operator="in"/>
    </filter>
    <clipPath id="pond_clip">
      <path d="M14 40 Q12 24 34 18 Q56 11 80 16 Q104 21 107 42 Q110 64 86 73 Q60 82 34 75 Q14 68 14 40 Z"/>
    </clipPath>
  </defs>
  <path d="M9 41 Q7 22 32 14 Q57 6 82 12 Q109 18 112 42 Q115 67 88 77 Q60 87 31 79 Q9 71 9 41 Z" fill="#7c8a5e" stroke="#3a2c1e" stroke-width="1.5" opacity="0.55"/>
  <path d="M14 40 Q12 24 34 18 Q56 11 80 16 Q104 21 107 42 Q110 64 86 73 Q60 82 34 75 Q14 68 14 40 Z" fill="url(#pond_water)" stroke="#3a2c1e" stroke-width="1.4"/>
  <g clip-path="url(#pond_clip)">
    <path d="M14 40 Q12 24 34 18 Q56 11 80 16 Q104 21 107 42 Q110 64 86 73 Q60 82 34 75 Q14 68 14 40 Z" fill="url(#pond_shallow)"/>
    <ellipse cx="56" cy="44" rx="32" ry="22" fill="none" stroke="#bfe0ee" stroke-width="1.1" opacity="0.5"/>
    <ellipse cx="56" cy="44" rx="20" ry="13.5" fill="none" stroke="#bfe0ee" stroke-width="1" opacity="0.45"/>
    <ellipse cx="56" cy="44" rx="9" ry="6" fill="none" stroke="#d6ecf5" stroke-width="0.9" opacity="0.5"/>
    <path d="M28 26 Q44 21 66 24" fill="none" stroke="#cfe6ef" stroke-width="1" opacity="0.5"/>
    <rect x="14" y="16" width="94" height="58" fill="#2f4f74" filter="url(#pond_grain)" opacity="0.3"/>
  </g>
  <g>
    <ellipse cx="44" cy="34" rx="11" ry="7.2" fill="url(#pond_pad)" stroke="#2f5a2f" stroke-width="1.2"/>
    <path d="M44 34 L52.5 30.5" stroke="#2f5a2f" stroke-width="1.1"/>
    <path d="M36 35 q7 -4 16 -3" fill="none" stroke="#9ad08f" stroke-width="0.9" opacity="0.7"/>
    <circle cx="44" cy="33" r="3.4" fill="url(#pond_bloom)" stroke="#c06f8c" stroke-width="0.8"/>
    <circle cx="44" cy="32.4" r="1.1" fill="#f6e7b0"/>
  </g>
  <g>
    <ellipse cx="78" cy="56" rx="9.5" ry="6.2" fill="url(#pond_pad2)" stroke="#2f5a2f" stroke-width="1.2"/>
    <path d="M78 56 L71 60" stroke="#2f5a2f" stroke-width="1.1"/>
    <path d="M71 56 q7 -3 14 -2" fill="none" stroke="#9ad08f" stroke-width="0.9" opacity="0.7"/>
    <circle cx="79" cy="55" r="2.9" fill="url(#pond_bloom)" stroke="#c06f8c" stroke-width="0.8"/>
    <circle cx="79" cy="54.5" r="1" fill="#f6e7b0"/>
  </g>
  <g>
    <ellipse cx="92" cy="36" rx="9" ry="7" fill="url(#pond_rock)" stroke="#3a2c1e" stroke-width="1.3"/>
    <path d="M85 33 q7 -4 14 0" fill="none" stroke="#e4ddca" stroke-width="1" opacity="0.7"/>
    <ellipse cx="92" cy="38.5" rx="6" ry="3.5" fill="#7c745f" opacity="0.4"/>
  </g>
  <path d="M20 34 Q18 26 30 22" fill="none" stroke="#d6ecf5" stroke-width="1.1" opacity="0.55"/>
</svg>
