<svg xmlns="http://www.w3.org/2000/svg" width="64" height="56" viewBox="0 0 64 56">
  <defs>
    <linearGradient id="stump_bark" x1="0" y1="0" x2="0" y2="1">
      <stop offset="0" stop-color="#9c6b3f"/><stop offset="0.5" stop-color="#7c5430"/><stop offset="1" stop-color="#5e3e23"/>
    </linearGradient>
    <radialGradient id="stump_top" cx="0.42" cy="0.4" r="0.7">
      <stop offset="0" stop-color="#c2925a"/><stop offset="0.6" stop-color="#a9794a"/><stop offset="1" stop-color="#8a5a32"/>
    </radialGradient>
    <filter id="stump_grain" x="0" y="0" width="100%" height="100%" color-interpolation-filters="sRGB">
      <feTurbulence type="fractalNoise" baseFrequency="0.04 0.5" numOctaves="3" seed="4" result="n"/>
      <feColorMatrix in="n" type="matrix" values="0 0 0 0 0 0 0 0 0 0 0 0 0 0 0 0.9 0 0 0 0" result="a"/>
      <feComponentTransfer in="a" result="m"><feFuncA type="gamma" amplitude="1" exponent="1.7"/></feComponentTransfer>
      <feComposite in="m" in2="SourceAlpha" operator="in"/>
    </filter>
  </defs>
  <ellipse cx="32" cy="51" rx="24" ry="5" fill="#2a3a22" opacity="0.24"/>
  <!-- bark side -->
  <path d="M10 22 L10 44 Q32 54 54 44 L54 22 Z" fill="url(#stump_bark)" stroke="#3a2c1e" stroke-width="1.5"/>
  <path d="M10 22 L10 44 Q32 54 54 44 L54 22 Z" fill="#5e3e23" filter="url(#stump_grain)" opacity="0.5"/>
  <g stroke="#4a3320" stroke-width="1.4" fill="none" opacity="0.6">
    <path d="M18 24 L18 46"/><path d="M30 25 L30 49"/><path d="M42 25 L42 49"/><path d="M50 24 L50 45"/>
  </g>
  <!-- top with rings -->
  <ellipse cx="32" cy="22" rx="22" ry="10" fill="url(#stump_top)" stroke="#3a2c1e" stroke-width="1.5"/>
  <ellipse cx="32" cy="22" rx="22" ry="10" fill="#8a5230" filter="url(#stump_grain)" opacity="0.25"/>
  <g fill="none" stroke="#8a5230" stroke-width="1.3" opacity="0.8">
    <ellipse cx="31" cy="21" rx="16" ry="7"/><ellipse cx="30.5" cy="21" rx="10" ry="4.3"/><ellipse cx="30" cy="20.5" rx="4.5" ry="2"/>
  </g>
  <ellipse cx="26" cy="18" rx="8" ry="3" fill="#d6a86a" opacity="0.45"/>
  <!-- little sprout -->
  <path d="M46 18 Q46 10 50 6" fill="none" stroke="#4f8a36" stroke-width="2" stroke-linecap="round"/>
  <path d="M50 6 Q55 5 56 9 Q51 10 50 6 Z" fill="#74b85a" stroke="#3a2c1e" stroke-width="0.7"/>
  <path d="M48 11 Q43 10 42 14 Q47 14 48 11 Z" fill="#67a546" stroke="#3a2c1e" stroke-width="0.7"/>
</svg>
